0
SECTION
2
HEADER
9
$INSUNITS
70
4
9
$ACADVER
1
AC1014
9
$HANDSEED
5
FFFF
0
ENDSEC
0
SECTION
2
TABLES
0
TABLE
2
VPORT
5
8
100
AcDbSymbolTable
0
ENDTAB
0
TABLE
2
LTYPE
5
5
100
AcDbSymbolTable
0
LTYPE
5
14
100
AcDbSymbolTableRecord
100
AcDbLinetypeTableRecord
2
BYBLOCK
70
0
0
LTYPE
5
15
100
AcDbSymbolTableRecord
100
AcDbLinetypeTableRecord
2
BYLAYER
70
0
0
ENDTAB
0
TABLE
2
LAYER
5
2
100
AcDbSymbolTable
70
2
0
LAYER
5
50
100
AcDbSymbolTableRecord
100
AcDbLayerTableRecord
2
0
70
0
6
CONTINUOUS
0
ENDTAB
0
TABLE
2
STYLE
5
3
100
AcDbSymbolTable
70
1
0
STYLE
5
11
100
AcDbSymbolTableRecord
100
AcDbTextStyleTableRecord
2
STANDARD
70
0
0
ENDTAB
0
TABLE
2
VIEW
5
6
100
AcDbSymbolTable
70
0
0
ENDTAB
0
TABLE
2
UCS
5
7
100
AcDbSymbolTable
70
0
0
ENDTAB
0
TABLE
2
APPID
5
9
100
AcDbSymbolTable
70
2
0
APPID
5
12
100
AcDbSymbolTableRecord
100
AcDbRegAppTableRecord
2
ACAD
70
0
0
ENDTAB
0
TABLE
2
DIMSTYLE
5
A
100
AcDbSymbolTable
70
1
0
ENDTAB
0
TABLE
2
BLOCK_RECORD
5
1
100
AcDbSymbolTable
70
1
0
BLOCK_RECORD
5
1F
100
AcDbSymbolTableRecord
100
AcDbBlockTableRecord
2
*MODEL_SPACE
0
BLOCK_RECORD
5
1B
100
AcDbSymbolTableRecord
100
AcDbBlockTableRecord
2
*PAPER_SPACE
0
ENDTAB
0
ENDSEC
0
SECTION
2
BLOCKS
0
BLOCK
5
20
100
AcDbEntity
100
AcDbBlockBegin
2
*MODEL_SPACE
0
ENDBLK
5
21
100
AcDbEntity
100
AcDbBlockEnd
0
BLOCK
5
1C
100
AcDbEntity
100
AcDbBlockBegin
2
*PAPER_SPACE
0
ENDBLK
5
1D
100
AcDbEntity
100
AcDbBlockEnd
0
ENDSEC
0
SECTION
2
ENTITIES
0
LWPOLYLINE
5
100
100
AcDbEntity
8
0
100
AcDbPolyline
90
8
70
1
43
0.0
10
119.99999926022979
20
370.79969160148715
42
0.41421317962797649
10
116.00000448732479
20
374.79969160148369
10
-115.99999550441824
20
374.79999477295712
42
0.41421394511824428
10
-120.00000073151226
20
370.79999477296013
10
-120.00000073149724
20
-170.79969160141786
42
0.41421317962805326
10
-116.00000595859126
20
-174.79969160141439
10
115.99999403315078
20
-174.79999477288786
42
0.41421394511831844
10
119.9999992602458
20
-170.79999477289189
0
LWPOLYLINE
5
101
100
AcDbEntity
8
0
100
AcDbPolyline
90
4
70
1
43
0.0
10
-71.16603937547238
20
-94.333180042789678
42
0.1491945591625114
10
-78.158787141925345
20
-98.370414057582508
42
0.99999999999999989
10
-75.337157500389608
20
-101.00429153638508
42
-0.14919455916236229
10
-70.295874226906705
20
-98.093727479208766
42
0.99999998946328783
0
LWPOLYLINE
5
102
100
AcDbEntity
8
0
100
AcDbPolyline
90
4
70
1
43
0.0
10
-79.989232431354424
20
-122.55859493926775
42
0.99999999999999989
10
-77.560496532039835
20
-119.55857054957849
42
-0.18540697280229965
10
-82.980118888019931
20
-110.17143770003857
42
0.99999999999999989
10
-86.792588160456532
20
-110.7747472839819
42
0.18540697329407463
0
SPLINE
5
103
100
AcDbEntity
8
0
100
AcDbSpline
70
0
71
3
72
23
73
19
74
0
42
0.000000001
43
0.0000000001
44
0.0000000001
40
1.2000196233287299
40
1.2000196233287299
40
1.2000196233287299
40
1.2000196233287299
40
1.2136362690574301
40
1.2136362690574301
40
1.2136362690574301
40
1.2511677733819799
40
1.2511677733819799
40
1.2511677733819799
40
1.28869927770654
40
1.28869927770654
40
1.28869927770654
40
1.3262307820310899
40
1.3262307820310899
40
1.3262307820310899
40
1.36376228635564
40
1.36376228635564
40
1.36376228635564
40
1.3773789320843399
40
1.3773789320843399
40
1.3773789320843399
40
1.3773789320843399
10
-54.678759406253135
20
-122.55337460657086
30
0
10
-54.662900188575037
20
-122.5138901124278
30
0
10
-54.645787517918443
20
-122.47438248887389
30
0
10
-54.627237872342192
20
-122.43503261967881
30
0
10
-54.576109560933133
20
-122.32657273790682
30
0
10
-54.514259324900451
20
-122.21912794630883
30
8.8817841970012523e-15
10
-54.442593720411601
20
-122.11684657910337
30
0
10
-54.370928115922752
20
-122.01456521189783
30
0
10
-54.289449521666953
20
-121.91744541517188
30
0
10
-54.200986625473831
20
-121.82898310325885
30
8.8817841970012523e-15
10
-54.112523729280753
20
-121.74052079134583
30
0
10
-54.015403394387846
20
-121.65904283853484
30
0
10
-53.913121553813291
20
-121.58737790956636
30
0
10
-53.810839713238742
20
-121.51571298059787
30
0
10
-53.703394513084852
20
-121.45386345417285
30
0
10
-53.594934293561252
20
-121.40273585906343
30
0
10
-53.555584301827935
20
-121.38418647336482
30
0
10
-53.516076565224246
20
-121.36707406362586
30
0
10
-53.476591966310039
20
-121.35121510671183
30
0
0
ARC
5
104
100
AcDbEntity
8
0
100
AcDbCircle
10
-52.674348126250628
20
-123.35563168544185
30
-3.0764891212927056e-38
40
2.1589999999999852
210
8.4828805454873384e-25
220
2.1194180643711468e-24
230
1
100
AcDbArc
50
-201.81354634227853
51
111.81316791344021
0
SPLINE
5
105
100
AcDbEntity
8
0
100
AcDbSpline
70
0
71
3
72
23
73
19
74
0
42
0.000000001
43
0.0000000001
44
0.0000000001
40
1.2000196233287299
40
1.2000196233287299
40
1.2000196233287299
40
1.2000196233287299
40
1.2136362690574301
40
1.2136362690574301
40
1.2136362690574301
40
1.2511677733819799
40
1.2511677733819799
40
1.2511677733819799
40
1.28869927770654
40
1.28869927770654
40
1.28869927770654
40
1.3262307820310899
40
1.3262307820310899
40
1.3262307820310899
40
1.36376228635564
40
1.36376228635564
40
1.36376228635564
40
1.3773789320843399
40
1.3773789320843399
40
1.3773789320843399
40
1.3773789320843399
10
-53.476499095241543
20
-93.229042965619655
30
0
10
-53.515983589409245
20
-93.213183747916844
30
8.8817841970012523e-15
10
-53.55549121298754
20
-93.196071077236667
30
0
10
-53.594841082204468
20
-93.177521431638581
30
0
10
-53.703300964036643
20
-93.126393120169269
30
0
10
-53.810745755682738
20
-93.064542884088439
30
0
10
-53.913027122920425
20
-92.992877279567267
30
8.8817841970012523e-15
10
-54.015308490158134
20
-92.921211675046038
30
0
10
-54.112428286901036
20
-92.839733080773755
30
0
10
-54.200890598813743
20
-92.751270184580648
30
0
10
-54.289352910726436
20
-92.662807288387569
30
0
10
-54.370830863520752
20
-92.565686953511175
30
8.8817841970012523e-15
10
-54.442495792457102
20
-92.463405112968999
30
0
10
-54.514160721393452
20
-92.361123272426781
30
0
10
-54.576010247770448
20
-92.253678072320952
30
0
10
-54.627137842819373
20
-92.145217852857655
30
0
10
-54.645687228496044
20
-92.105867861146237
30
0
10
-54.662799638211233
20
-92.066360124566046
30
0
10
-54.678658595100543
20
-92.02687552567653
30
0
0
ARC
5
106
100
AcDbEntity
8
0
100
AcDbCircle
10
-52.674242016370663
20
-91.224631685617155
30
2.8928181289767232e-38
40
2.1589999999999305
210
2.2235313681566501e-24
220
-8.8995896101369495e-25
230
1
100
AcDbArc
50
-111.81354634227588
51
201.81316791344065
0
LWPOLYLINE
5
107
100
AcDbEntity
8
0
100
AcDbPolyline
90
4
70
1
43
0.0
10
-49.303307025712606
20
-104.84220276258789
42
0.18540697329396058
10
-56.106662754806578
20
-93.058355107310419
42
0.99999999999999989
10
-58.535398654124535
20
-96.058379496990653
42
-0.18540697280229779
10
-53.115776298144361
20
-105.44551234653044
42
0.99999999999999989
0
LWPOLYLINE
5
108
100
AcDbEntity
8
0
100
AcDbPolyline
90
4
70
1
43
0.0
10
-74.851400744462239
20
-125.52494606978819
42
0.18540697329402892
10
-61.244611456111343
20
-125.52499100504619
42
1.0000000105367122
10
-62.628340839898726
20
-121.92163182231366
42
-0.18540697329414918
10
-73.46764756113393
20
-121.92159602643024
42
1.0000000105367122
0
SPLINE
5
109
100
AcDbEntity
8
0
100
AcDbSpline
70
0
71
3
72
23
73
19
74
0
42
0.000000001
43
0.0000000001
44
0.0000000001
40
1.2000196233287299
40
1.2000196233287299
40
1.2000196233287299
40
1.2000196233287299
40
1.2136362690574301
40
1.2136362690574301
40
1.2136362690574301
40
1.2511677733819799
40
1.2511677733819799
40
1.2511677733819799
40
1.28869927770654
40
1.28869927770654
40
1.28869927770654
40
1.3262307820310899
40
1.3262307820310899
40
1.3262307820310899
40
1.36376228635564
40
1.36376228635564
40
1.36376228635564
40
1.3773789320843399
40
1.3773789320843399
40
1.3773789320843399
40
1.3773789320843399
10
-84.003091047204549
20
-121.35111429555988
30
0
10
-83.963606553086436
20
-121.36697351326288
30
0
10
-83.924098929555129
20
-121.38408618394283
30
8.8817841970012523e-15
10
-83.884749060381921
20
-121.40263582954084
30
0
10
-83.776289178670254
20
-121.45376414100987
30
0
10
-83.668844387120345
20
-121.51561437709086
30
0
10
-83.566563019947353
20
-121.58727998161186
30
0
10
-83.464281652774361
20
-121.65894558613287
30
0
10
-83.367161856064541
20
-121.74042418040585
30
0
10
-83.278699544151777
20
-121.82888707659885
30
0
10
-83.190237232239056
20
-121.91734997279184
30
0
10
-83.108759279411672
20
-122.01447030766786
30
0
10
-83.037094350410655
20
-122.1167521482104
30
0
10
-82.965429421409652
20
-122.2190339887529
30
0
10
-82.903579894936442
20
-122.32647918885786
30
0
10
-82.852452299767023
20
-122.43493940832131
30
0
10
-82.833902914046647
20
-122.47428940003286
30
0
10
-82.816790504284441
20
-122.51379713661282
30
0
10
-82.800931547345556
20
-122.55328173550285
30
0
0
ARC
5
110
100
AcDbEntity
8
0
100
AcDbCircle
10
-84.805348126075231
20
-123.35552557556186
30
0
40
2.1589999999993799
210
0
220
-0
230
1
100
AcDbArc
50
-291.81354634227614
51
21.813167913433581
0
LWPOLYLINE
5
111
100
AcDbEntity
8
0
100
AcDbPolyline
90
4
70
1
43
0.0
10
-57.937045707681321
20
-98.370480838154606
42
0.14919455916239202
10
-64.92976680873511
20
-94.333200637548543
42
0.99999999999999989
10
-65.799956795066507
20
-98.093742326589535
42
-0.14919455842543958
10
-60.758692765088966
20
-101.00433965949462
42
1.0000000105367122
0
LWPOLYLINE
5
112
100
AcDbEntity
8
0
100
AcDbPolyline
90
4
70
1
43
0.0
10
-79.9891350090694
20
-93.058276237477813
42
0.18540697329414896
10
-86.792568568324555
20
-104.84207895750787
42
0.99999998946328783
10
-82.980103285222356
20
-105.44541375055032
42
-0.18540697329399886
10
-77.560418924469246
20
-96.058316668498506
42
0.99999998946328783
0
LWPOLYLINE
5
113
100
AcDbEntity
8
0
100
AcDbPolyline
90
4
70
1
43
0.0
10
-71.166128377429047
20
-121.28374940902088
42
0.99999999999999989
10
-70.295938391097678
20
-117.52320771997923
42
-0.14919455916252106
10
-75.337202440698945
20
-114.61261036605114
42
0.99999999999999989
10
-78.158849478483262
20
-117.24646920841471
42
0.14919455916239793
0
LWPOLYLINE
5
114
100
AcDbEntity
8
0
100
AcDbPolyline
90
4
70
1
43
0.0
10
-56.106760177090464
20
-122.55867380908852
42
0.18540697368593614
10
-49.303326613344339
20
-110.77487106065688
42
0.99999998946328783
10
-53.115791900937523
20
-110.17153629602014
42
-0.18540697329421313
10
-58.535476261702271
20
-119.55863337808246
42
0.99999999999999989
0
LWPOLYLINE
5
115
100
AcDbEntity
8
0
100
AcDbPolyline
90
4
70
1
43
0.0
10
-61.244494441702095
20
-90.092003976781442
42
0.18540697329402483
10
-74.851283730052415
20
-90.09195904152341
42
0.99999999999999989
10
-73.467554346265601
20
-93.695318224254933
42
-0.18540697329414746
10
-62.628247625030021
20
-93.695354020138453
42
0.99999999999999989
0
LWPOLYLINE
5
116
100
AcDbEntity
8
0
100
AcDbPolyline
90
4
70
1
43
0.0
10
-54.818953925292043
20
-111.84577581865091
42
0.14919455916258623
10
-54.818927259899525
20
-103.7712616032469
42
0.99999999999999989
10
-58.510746887763787
20
-104.89792581349391
42
-0.1491945591623742
10
-58.510766111651407
20
-110.71908722459088
42
1.0000000105367122
0
LWPOLYLINE
5
117
100
AcDbEntity
8
0
100
AcDbPolyline
90
4
70
1
43
0.0
10
-64.929855810691521
20
-121.28377000378001
42
0.14919455916251012
10
-57.937108044238457
20
-117.24653598898692
42
0.99999999999999989
10
-60.758737685774804
20
-114.61265851018432
42
-0.14919455989942368
10
-65.800020987275587
20
-117.52322257384365
42
0.99999999999999989
0
LWPOLYLINE
5
118
100
AcDbEntity
8
0
100
AcDbPolyline
90
4
70
1
43
0.0
10
-81.276941260873429
20
-103.7711742279179
42
0.14919455916258065
10
-81.276967926266352
20
-111.84568844332244
42
0.99999999999999989
10
-77.585148298399076
20
-110.71902423307444
42
-0.14919455916238794
10
-77.58512907451103
20
-104.89786282197791
42
1.0000000105367122
0
SPLINE
5
119
100
AcDbEntity
8
0
100
AcDbSpline
70
0
71
3
72
14
73
10
74
0
42
0.000000001
43
0.0000000001
44
0.0000000001
40
0
40
0
40
0
40
0
40
0.11241571587460999
40
0.11241571587460999
40
0.11241571587460999
40
0.19538168028913999
40
0.19538168028913999
40
0.19538168028913999
40
0.299108111249692
40
0.299108111249692
40
0.299108111249692
40
0.299108111249692
10
-82.800830736193063
20
-92.026782654608155
30
0
10
-82.940494411801637
20
-92.374501544421776
30
0
10
-83.124176810437746
20
-92.594435995108157
30
0
10
-83.267037846870522
20
-92.73951887555998
30
0
10
-83.372473315325152
20
-92.846594127477147
30
0
10
-83.489388098054448
20
-92.942911118511631
30
0
10
-83.615799173790549
20
-93.026325801694654
30
0
10
-83.773841930389835
20
-93.130613233743958
30
0
10
-83.914222321710838
20
-93.193285404979363
30
0
10
-84.002998176136146
20
-93.228942154467163
30
0
0
ARC
5
120
100
AcDbEntity
8
0
100
AcDbCircle
10
-84.805242016195479
20
-91.224525575737346
30
7.9351608399014281e-39
40
2.1589999999998382
210
-2.2248974025340496e-25
220
-5.5588284203916417e-25
230
1
100
AcDbArc
50
-21.813546342274904
51
291.81316791344022
0
SPLINE
5
121
100
AcDbEntity
8
0
100
AcDbSpline
70
0
71
3
72
23
73
19
74
0
42
0.000000001
43
0.0000000001
44
0.0000000001
40
1.2000196233287299
40
1.2000196233287299
40
1.2000196233287299
40
1.2000196233287299
40
1.2136362690574301
40
1.2136362690574301
40
1.2136362690574301
40
1.2511677733819799
40
1.2511677733819799
40
1.2511677733819799
40
1.28869927770654
40
1.28869927770654
40
1.28869927770654
40
1.3262307820310899
40
1.3262307820310899
40
1.3262307820310899
40
1.36376228635564
40
1.36376228635564
40
1.36376228635564
40
1.3773789320843399
40
1.3773789320843399
40
1.3773789320843399
40
1.3773789320843399
10
53.476756550100973
20
-93.229219567609576
30
0
10
53.516241096642069
20
-93.213360480301063
30
0
10
53.555748776733374
20
-93.196247940091439
30
0
10
53.595098707208706
20
-93.177698424443037
30
0
10
53.703558757887173
20
-93.12657047115357
30
0
10
53.811003753787674
20
-93.064720589900247
30
0
10
53.913285357694363
20
-92.993055323154977
30
0
10
54.015566961601074
20
-92.921390056409678
30
0
10
54.112687027419469
20
-92.839911782867659
30
0
10
54.20114963147288
20
-92.751449178814198
30
0
10
54.28961223552627
20
-92.662986574760737
30
0
10
54.371090509051768
20
-92.565866508958962
30
0
10
54.442755775764766
20
-92.46358490508463
30
0
10
54.514421042477764
20
-92.36130330121027
30
0
10
54.576270923682877
20
-92.253858305357781
30
0
10
54.627398876912203
20
-92.145398254739519
30
0
10
54.645948392538777
20
-92.106048324286078
30
0
10
54.663060932724775
20
-92.066540644218378
30
0
10
54.678920020008562
20
-92.027056097701987
30
0
0
ARC
5
122
100
AcDbEntity
8
0
100
AcDbCircle
10
52.674506090631262
20
-91.224805638232667
30
0
40
2.1590000000001037
210
0
220
0
230
1
100
AcDbArc
50
-21.813357127852072
51
291.81335712786546
0
SPLINE
5
123
100
AcDbEntity
8
0
100
AcDbSpline
70
0
71
3
72
23
73
19
74
0
42
0.000000001
43
0.0000000001
44
0.0000000001
40
1.2000196233287299
40
1.2000196233287299
40
1.2000196233287299
40
1.2000196233287299
40
1.2136362690574301
40
1.2136362690574301
40
1.2136362690574301
40
1.2511677733819799
40
1.2511677733819799
40
1.2511677733819799
40
1.28869927770654
40
1.28869927770654
40
1.28869927770654
40
1.3262307820310899
40
1.3262307820310899
40
1.3262307820310899
40
1.36376228635564
40
1.36376228635564
40
1.36376228635564
40
1.3773789320843399
40
1.3773789320843399
40
1.3773789320843399
40
1.3773789320843399
10
54.678920020008562
20
-122.55355517876285
30
0
10
54.663060932724775
20
-122.51407063224684
30
0
10
54.64594839253877
20
-122.47456295217886
30
0
10
54.627398876912196
20
-122.43521302172527
30
0
10
54.576270923682877
20
-122.32675297110683
30
0
10
54.514421042477764
20
-122.21930797525486
30
0
10
54.442755775764766
20
-122.11702637138035
30
0
10
54.371090509051768
20
-122.01474476750585
30
0
10
54.28961223552627
20
-121.91762470170389
30
0
10
54.201149631472859
20
-121.82916209765037
30
0
10
54.112687027419469
20
-121.74069949359688
30
0
10
54.015566961601074
20
-121.65922122005485
30
0
10
53.913285357694384
20
-121.58755595330985
30
0
10
53.811003753787681
20
-121.51589068656483
30
0
10
53.703558757887173
20
-121.45404080531182
30
0
10
53.595098707208699
20
-121.40291285202227
30
0
10
53.555748776733374
20
-121.38436333637385
30
0
10
53.516241096642162
20
-121.36725079616383
30
0
10
53.476756550100973
20
-121.35139170885583
30
0
0
ARC
5
124
100
AcDbEntity
8
0
100
AcDbCircle
10
52.674506090631681
20
-123.35580563823287
30
-3.4151325133752982e-39
40
2.158999999999871
210
1.1117671535788397e-24
220
-4.4497580899305229e-25
230
1
100
AcDbArc
50
-291.81335712785375
51
21.813357127873267
0
SPLINE
5
125
100
AcDbEntity
8
0
100
AcDbSpline
70
0
71
3
72
18
73
14
74
0
42
0.000000001
43
0.0000000001
44
0.0000000001
40
0
40
0
40
0
40
0
40
0.0229638309601134
40
0.0229638309601134
40
0.086258943292479698
40
0.086258943292479698
40
0.149554055624846
40
0.149554055624846
40
0.21284916795721201
40
0.21284916795721201
40
0.27614428028957799
40
0.27614428028957799
40
0.299108111249692
40
0.299108111249692
40
0.299108111249692
40
0.299108111249692
10
82.801092161254388
20
-92.027056097701973
30
0
10
82.816951248587685
20
-92.066540644218378
30
8.8817841970012523e-15
10
82.834063788820686
20
-92.106048324286064
30
0
10
82.903741257840693
20
-92.253858305357767
30
0
10
82.965591139142077
20
-92.36130330121027
30
0
10
83.108921672697392
20
-92.565866508958862
30
0
10
83.19039994625598
20
-92.662986574760765
30
0
10
83.367325154362788
20
-92.839911782867674
30
0
10
83.464445220148079
20
-92.921390056409678
30
0
10
83.669008427832168
20
-93.064720589900261
30
8.8817841970012523e-15
10
83.776453423636482
20
-93.12657047115357
30
0
10
83.924263404626075
20
-93.196247940091467
30
8.8817841970012523e-15
10
83.963771084670284
20
-93.213360480301063
30
0
10
84.003255631161892
20
-93.229219567609562
30
8.8817841970012523e-15
0
ARC
5
126
100
AcDbEntity
8
0
100
AcDbCircle
10
84.805506090631383
20
-91.224805638232382
30
8.8817841970012523e-15
40
2.159000000000046
210
1.1117662984655408e-24
220
-4.4497546674096033e-25
230
1
100
AcDbArc
50
-111.81335712785767
51
201.81335712786165
0
ARC
5
127
100
AcDbEntity
8
0
100
AcDbCircle
10
84.805506090631511
20
-123.35580563823285
30
-4.4195832526033271e-38
40
2.1590000000000167
210
1.5359076812524849e-24
220
6.1473462388582574e-25
230
1
100
AcDbArc
50
-201.81335712786961
51
111.81335712785268
0
SPLINE
5
128
100
AcDbEntity
8
0
100
AcDbSpline
70
0
71
3
72
18
73
14
74
0
42
0.000000001
43
0.0000000001
44
0.0000000001
40
1.2000196233287299
40
1.2000196233287299
40
1.2000196233287299
40
1.2000196233287299
40
1.2136362690574301
40
1.2136362690574301
40
1.2511677733819799
40
1.2511677733819799
40
1.28869927770654
40
1.28869927770654
40
1.3262307820310899
40
1.3262307820310899
40
1.36376228635564
40
1.36376228635564
40
1.3773789320843399
40
1.3773789320843399
40
1.3773789320843399
40
1.3773789320843399
10
84.003255631161892
20
-121.35139170885488
30
0
10
83.963771084670284
20
-121.36725079616386
30
0
10
83.924263404626075
20
-121.38436333637387
30
0
10
83.776453423636482
20
-121.45404080531186
30
0
10
83.669008427832168
20
-121.51589068656486
30
0
10
83.464445220148079
20
-121.65922122005486
30
0
10
83.367325154362788
20
-121.74069949359688
30
8.8817841970012523e-15
10
83.19039994625598
20
-121.91762470170387
30
0
10
83.108921672697392
20
-122.01474476750587
30
0
10
82.965591139142077
20
-122.21930797525488
30
0
10
82.903741257840693
20
-122.32675297110687
30
0
10
82.834063788820686
20
-122.47456295217887
30
0
10
82.816951248587685
20
-122.51407063224688
30
0
10
82.801092161254388
20
-122.55355517876288
30
0
0
LWPOLYLINE
5
129
100
AcDbEntity
8
0
100
AcDbPolyline
90
4
70
1
43
0.0
10
78.159027617711729
20
-98.370672170689772
42
0.14919455916250335
10
71.166293183917077
20
-94.333415062967617
42
1.0000000105367122
10
70.296115616469919
20
-98.093959625719677
42
-0.14919455916234822
10
75.33738927803654
20
-101.0045403312869
42
0.99999999999999989
0
LWPOLYLINE
5
130
100
AcDbEntity
8
0
100
AcDbPolyline
90
4
70
1
43
0.0
10
54.819149899976068
20
-103.77144263843388
42
0.14919455916258745
10
54.819149899976082
20
-111.84595685388187
42
0.99999999999999989
10
58.510965807107468
20
-110.71928045172201
42
-0.14919455916238317
10
58.510965807107837
20
-104.89811904059283
42
0.99999999999999989
0
LWPOLYLINE
5
131
100
AcDbEntity
8
0
100
AcDbPolyline
90
4
70
1
43
0.0
10
61.244762256322069
20
-125.52519326038684
42
0.1854069732940343
10
74.851551544747281
20
-125.5251932603867
42
0.99999999999999989
10
73.467810261181668
20
-121.92183864732161
42
-0.18540697329415745
10
62.628503539887326
20
-121.92183864732172
42
0.99999999999999989
0
LWPOLYLINE
5
132
100
AcDbEntity
8
0
100
AcDbPolyline
90
4
70
1
43
0.0
10
57.937286183356527
20
-117.2467273216252
42
0.14919455916252353
10
64.930020617151726
20
-121.28398442934808
42
0.99999998946328783
10
65.800198212617133
20
-117.52343987307901
42
-0.14919455989943933
10
60.758924523032164
20
-114.61285916102808
42
0.99999999999999989
0
LWPOLYLINE
5
133
100
AcDbEntity
8
0
100
AcDbPolyline
90
4
70
1
43
0.0
10
56.106920773333698
20
-93.058540395191926
42
0.1854069732939633
10
49.303526129127668
20
-104.84236558290489
42
1.0000000105367122
10
53.115993409162535
20
-105.44568775719824
42
-0.18540697280230217
10
58.535646765316052
20
-96.058572805550341
42
0.99999999999999989
0
LWPOLYLINE
5
134
100
AcDbEntity
8
0
100
AcDbPolyline
90
4
70
1
43
0.0
10
86.792787671943955
20
-104.84236558290391
42
0.18540697329413472
10
79.98939302772672
20
-93.058540395181396
42
0.99999999999999989
10
77.560667035764496
20
-96.058572805556565
42
-0.1854069732939938
10
82.98032039640384
20
-105.44568778560284
42
0.99999999999999989
0
LWPOLYLINE
5
135
100
AcDbEntity
8
0
100
AcDbPolyline
90
4
70
1
43
0.0
10
74.851551544746613
20
-90.09220623192877
42
0.18540697329401998
10
61.244762256322161
20
-90.092206231928827
42
1.0000000105367122
10
62.628503539887078
20
-93.695560844992713
42
-0.18540697329414069
10
73.467810261181654
20
-93.695560844992713
42
0.99999999999999989
0
LWPOLYLINE
5
136
100
AcDbEntity
8
0
100
AcDbPolyline
90
4
70
1
43
0.0
10
71.166293183923344
20
-121.28398442934612
42
0.1491945591623994
10
78.159027617711871
20
-117.24672732162504
42
0.99999999999999989
10
75.337389278036042
20
-114.61285916102727
42
-0.14919455916252503
10
70.296115616463823
20
-117.52343986659611
42
0.99999999999999989
0
LWPOLYLINE
5
137
100
AcDbEntity
8
0
100
AcDbPolyline
90
4
70
1
43
0.0
10
79.989393027732675
20
-122.55885909713231
42
0.18540697329407357
10
86.792787671946328
20
-110.77503390941089
42
1.0000000105367122
10
82.980320391910155
20
-110.1717117351171
42
-0.18540697280231525
10
77.560667035755515
20
-119.55882668676828
42
0.99999999999999989
0
LWPOLYLINE
5
138
100
AcDbEntity
8
0
100
AcDbPolyline
90
4
70
1
43
0.0
10
49.303526124629748
20
-110.77503388100588
42
0.18540697368594308
10
56.106920773338089
20
-122.55885909713098
42
0.99999999999999989
10
58.535646765313878
20
-119.55882668676686
42
-0.18540697329422337
10
53.115993404665005
20
-110.17171170671189
42
0.99999998946328783
0
LWPOLYLINE
5
139
100
AcDbEntity
8
0
100
AcDbPolyline
90
4
70
1
43
0.0
10
64.930020617145786
20
-94.333415062969635
42
0.14919455916238972
10
57.937286183357543
20
-98.370672170690312
42
1.0000000105367122
10
60.75892454265653
20
-101.00454031026429
42
-0.14919455842543505
10
65.800198184605179
20
-98.093959625718711
42
0.99999999999999989
0
LWPOLYLINE
5
140
100
AcDbEntity
8
0
100
AcDbPolyline
90
4
70
1
43
0.0
10
81.277163901094397
20
-111.84595685388237
42
0.14919455916259614
10
81.277163901094241
20
-103.77144263843289
42
0.99999999999999989
10
77.585347993960553
20
-104.8981190405925
42
-0.14919455916239191
10
77.585347993961051
20
-110.71928045172187
42
0.99999999999999989
0
LWPOLYLINE
5
141
100
AcDbEntity
8
0
100
AcDbPolyline
90
4
70
1
43
0.0
10
-9.0035254615965332
20
97.304490381387282
42
0.9999999925494194
10
-13.389594176414528
20
93.210299224529209
42
0.14919455916251267
10
-2.519805054316564
20
86.934623548853438
42
0.9999999925494194
10
-1.1671658619450997
20
92.780166057059887
42
-0.14919455916252061
0
LWPOLYLINE
5
142
100
AcDbEntity
8
0
100
AcDbPolyline
90
4
70
1
43
0.0
10
25.538310701216048
20
111.55431219864816
42
0.18540697329399611
10
17.113782399336401
20
126.14602324731003
42
-0.99999999999999989
10
20.889092275315182
20
130.80939491814979
42
-0.18540697329414471
10
31.464563973432913
20
112.49214062300811
42
-0.99999999999999989
0
LWPOLYLINE
5
143
100
AcDbEntity
8
0
100
AcDbPolyline
90
4
70
1
43
0.0
10
-12.459478295931572
20
126.14602324732309
42
0.18540697280230262
10
-20.884006597827067
20
111.55431219864846
42
-0.99999999999999989
10
-26.81025987003985
20
112.49214062300712
42
-0.18540697329407455
10
-16.234788137195086
20
130.80939494626142
42
-0.9999999925494194
0
LWPOLYLINE
5
144
100
AcDbEntity
8
0
100
AcDbPolyline
90
4
70
1
43
0.0
10
-1.1671658619451275
20
122.98213568279553
42
0.14919455916251703
10
-9.0035254615964213
20
118.45781135846936
42
-0.99999999999999989
10
-13.389594176414139
20
122.55200251532629
42
-0.14919455916251437
10
-2.5198050543261905
20
128.82767819100079
42
-0.99999999999999989
0
LWPOLYLINE
5
145
100
AcDbEntity
8
0
100
AcDbPolyline
90
4
70
1
43
0.0
10
17.113782399325331
20
89.616278492527286
42
0.99999999999999989
10
20.889092275323804
20
84.952906821709206
42
0.1854069732940693
10
31.464563973433037
20
103.27016111684793
42
0.99999999999999989
10
25.538310701219213
20
104.2079895412072
42
-0.18540697329421371
0
LWPOLYLINE
5
146
100
AcDbEntity
8
0
100
AcDbPolyline
90
4
70
1
43
0.0
10
-12.497843375228374
20
112.40547519424914
42
0.9999999925494194
10
-18.236551282422905
20
114.15682654560717
42
0.1491945591625875
10
-18.236551282422802
20
101.6054751942489
42
0.99999999999999989
10
-12.497843375228378
20
103.35682654560716
42
-0.14919455916239349
0
LWPOLYLINE
5
147
100
AcDbEntity
8
0
100
AcDbPolyline
90
4
70
1
43
0.0
10
5.8214699653339093
20
92.780166057060868
42
0.99999999999999989
10
7.1741091577151668
20
86.934623548855626
42
0.14919455916239505
10
18.043898279803546
20
93.210299224529166
42
0.99999999999999989
10
13.6578295649848
20
97.304490381388021
42
-0.14919455916252017
0
LWPOLYLINE
5
148
100
AcDbEntity
8
0
100
AcDbPolyline
90
4
70
1
43
0.0
10
13.657829564985438
20
118.45781135846912
42
0.14919455989943195
10
5.8214698899078368
20
122.98213570024883
42
-0.99999998709521587
10
7.1741091577056126
20
128.82767819100391
42
-0.1491945591625129
10
18.043898279803294
20
122.55200251532722
42
-0.99999999999999989
0
LWPOLYLINE
5
149
100
AcDbEntity
8
0
100
AcDbPolyline
90
4
70
1
43
0.0
10
-20.884006597827138
20
104.20798954120814
42
0.9999999925494194
10
-26.810259870044145
20
103.27016111684814
42
0.18540697329407277
10
-16.234788171934717
20
84.952906821709178
42
1.0000000074505806
10
-12.459478295939086
20
89.616278492533667
42
-0.18540697329415182
0
LWPOLYLINE
5
150
100
AcDbEntity
8
0
100
AcDbPolyline
90
4
70
1
43
0.0
10
10.751680353584019
20
129.81918457604775
42
0.18540697329414502
10
-6.0973762501957163
20
129.81918457604755
42
-0.99999999999999989
10
-8.2483196464157178
20
135.4203846712287
42
-0.18540697329402367
10
12.902623749804711
20
135.42038467122853
42
-0.99999999999999989
0
LWPOLYLINE
5
151
100
AcDbEntity
8
0
100
AcDbPolyline
90
4
70
1
43
0.0
10
17.152147478617277
20
103.35682654560713
42
0.14919455842532764
10
17.152147491663531
20
112.40547515149144
42
-1.0000000074505806
10
22.890855385814056
20
114.15682654560817
42
-0.14919455916258781
10
22.890855385811637
20
101.60547519424917
42
-0.99999999999999989
0
LWPOLYLINE
5
152
100
AcDbEntity
8
0
100
AcDbPolyline
90
4
70
1
43
0.0
10
-6.0973762501952633
20
85.943117163808751
42
0.99999999999999989
10
-8.2483196464156556
20
80.341917068627737
42
0.185406973294028
10
12.902623749804757
20
80.341917068627723
42
0.99999999999999989
10
10.751680353584341
20
85.943117163808836
42
-0.18540697329414929
0
CIRCLE
5
153
100
AcDbEntity
8
0
100
AcDbCircle
10
-109.99962001771124
20
360.20037633321914
30
0
40
2.5000000000000004
210
9.2553366725558798e-51
220
5.605193857291627e-45
230
1
0
CIRCLE
5
154
100
AcDbEntity
8
0
100
AcDbCircle
10
-110.00000392339425
20
127.70037633353616
30
0
40
2.4999999999999907
210
1.6543612251038002e-24
220
-2.731693230634639e-30
230
1
0
CIRCLE
5
155
100
AcDbEntity
8
0
100
AcDbCircle
10
109.99961217062278
20
-164.79998693173886
30
0
40
2.5000000000000004
210
9.2553366725558798e-51
220
5.605193857291627e-45
230
1
0
CIRCLE
5
156
100
AcDbEntity
8
0
100
AcDbCircle
10
109.99999607630579
20
127.70001306794414
30
0
40
2.4999999999999907
210
1.6543612251038002e-24
220
-2.731693230634639e-30
230
1
0
CIRCLE
5
157
100
AcDbEntity
8
0
100
AcDbCircle
10
110.00037998198879
20
360.20001306762714
30
0
40
2.5000000000000004
210
9.2553366725558798e-51
220
5.605193857291627e-45
230
1
0
CIRCLE
5
158
100
AcDbEntity
8
0
100
AcDbCircle
10
-110.00038782907724
20
-164.79962366614686
30
0
40
2.5000000000000004
210
9.2553366725558798e-51
220
5.605193857291627e-45
230
1
0
ENDSEC
0
SECTION
2
OBJECTS
0
DICTIONARY
5
C
100
AcDbDictionary
3
ACAD_GROUP
350
D
3
ACAD_MLINESTYLE
350
17
0
DICTIONARY
5
D
100
AcDbDictionary
0
DICTIONARY
5
1A
330
C
100
AcDbDictionary
0
DICTIONARY
5
17
100
AcDbDictionary
0
ENDSEC
0
EOF
